<svg width="28" height="29" viewBox="0 0 28 29" fill="currentColor" xmlns="http://www.w3.org/2000/svg">
    <path id="Union" fill-rule="evenodd" clip-rule="evenodd" d="M6.90039 6.6999H18.9004C19.287 6.6999 19.6004 7.0133 19.6004 7.3999V8.0999H7.18024C6.90917 8.09578 6.64632 8.02649 6.41223 7.9016C6.28156 7.77443 6.20039 7.59664 6.20039 7.3999C6.20039 7.0133 6.51379 6.6999 6.90039 6.6999ZM4.40343 7.52434C4.40141 7.48311 4.40039 7.44163 4.40039 7.3999C4.40039 6.01919 5.51968 4.8999 6.90039 4.8999H18.9004C20.2811 4.8999 21.4004 6.01919 21.4004 7.3999V8.0999L21.4004 8.1001C22.6154 8.1001 23.6004 9.08507 23.6004 10.3001V21C23.6004 22.215 22.6154 23.2 21.4004 23.2H6.60039C5.38536 23.2 4.40039 22.215 4.40039 21V8.49441V8.45978V8.17021V7.58955C4.40039 7.56756 4.40142 7.5458 4.40343 7.52434ZM6.20039 9.80058V21C6.20039 21.2209 6.37948 21.4 6.60039 21.4H21.4004C21.6213 21.4 21.8004 21.2209 21.8004 21V10.3001C21.8004 10.0792 21.6213 9.9001 21.4004 9.9001H7.20592C7.1936 9.9001 7.18128 9.90003 7.16897 9.8999H6.90039C6.6574 9.8999 6.42251 9.86524 6.20039 9.80058ZM20.2004 15.6C20.2004 16.4837 19.484 17.2 18.6004 17.2C17.7167 17.2 17.0004 16.4837 17.0004 15.6C17.0004 14.7163 17.7167 14 18.6004 14C19.484 14 20.2004 14.7163 20.2004 15.6Z" />
</svg>