<svg width="28" height="29" viewBox="0 0 28 29" fill="currentColor" xmlns="http://www.w3.org/2000/svg">
    <path id="Combined Shape" fill-rule="evenodd" clip-rule="evenodd" d="M6.00078 12.2998C7.21581 12.2998 8.20078 13.2848 8.20078 14.4998C8.20078 15.7148 7.21581 16.6998 6.00078 16.6998C4.78575 16.6998 3.80078 15.7148 3.80078 14.4998C3.80078 13.2848 4.78575 12.2998 6.00078 12.2998ZM14.0008 12.2998C15.2158 12.2998 16.2008 13.2848 16.2008 14.4998C16.2008 15.7148 15.2158 16.6998 14.0008 16.6998C12.7858 16.6998 11.8008 15.7148 11.8008 14.4998C11.8008 13.2848 12.7858 12.2998 14.0008 12.2998ZM24.2008 14.4998C24.2008 13.2848 23.2158 12.2998 22.0008 12.2998C20.7858 12.2998 19.8008 13.2848 19.8008 14.4998C19.8008 15.7148 20.7858 16.6998 22.0008 16.6998C23.2158 16.6998 24.2008 15.7148 24.2008 14.4998Z" />
</svg>