<svg width="24" height="24" viewBox="0 0 24 24" fill="currentColor" xmlns="http://www.w3.org/2000/svg">
    <g id="V1_appbar_setting">
        <path id="Union" fill-rule="evenodd" clip-rule="evenodd" d="M14.6723 2.83072C14.399 2.14733 13.7371 1.69922 13.0011 1.69922H11.0011C10.265 1.69922 9.60316 2.14733 9.3298 2.83072L8.71119 4.37725C8.11683 4.63407 7.55897 4.95803 7.04709 5.33928L5.39654 5.10147C4.66804 4.99651 3.94902 5.34566 3.58101 5.98308L2.58101 7.71513C2.21299 8.35255 2.27013 9.1498 2.72528 9.72823L3.75624 11.0384C3.71976 11.3541 3.70106 11.6748 3.70106 11.9992C3.70106 12.3237 3.71977 12.6444 3.75626 12.9602L2.7254 14.2702C2.27025 14.8486 2.21312 15.6459 2.58113 16.2833L3.58113 18.0154C3.94914 18.6528 4.66816 19.0019 5.39666 18.897L7.04711 18.6592C7.55899 19.0404 8.11684 19.3644 8.71119 19.6212L9.3298 21.1677C9.60316 21.8511 10.265 22.2992 11.0011 22.2992H13.0011C13.7371 22.2992 14.399 21.8511 14.6723 21.1677L15.2909 19.6212C15.8854 19.3643 16.4433 19.0403 16.9553 18.659L18.6056 18.8967C19.3341 19.0017 20.0531 18.6525 20.4211 18.0151L21.4211 16.2831C21.7891 15.6457 21.732 14.8484 21.2768 14.27L20.2459 12.9598C20.2824 12.6442 20.3011 12.3236 20.3011 11.9992C20.3011 11.6749 20.2824 11.3544 20.2459 11.0387L21.277 9.72846C21.7321 9.15004 21.7892 8.35278 21.4212 7.71536L20.4212 5.98331C20.0532 5.34589 19.3342 4.99675 18.6057 5.10171L16.9553 5.33949C16.4434 4.95815 15.8854 4.63411 15.2909 4.37725L14.6723 2.83072ZM7.57966 7.2346C8.28695 6.57795 9.14068 6.07688 10.0864 5.78579L11.0011 3.49922H13.0011L13.9157 5.78579C14.8615 6.07691 15.7154 6.57806 16.4227 7.23481L18.8624 6.88331L19.8624 8.61536L18.3392 10.5511C18.4451 11.0168 18.5011 11.5015 18.5011 11.9992C18.5011 12.497 18.4451 12.9817 18.3391 13.4474L19.8623 15.3831L18.8623 17.1151L16.4227 16.7636C15.7153 17.4204 14.8615 17.9215 13.9157 18.2126L13.0011 20.4992H11.0011L10.0864 18.2126C9.14069 17.9216 8.28697 17.4205 7.57968 16.7639L5.13997 17.1154L4.13997 15.3833L5.66305 13.4477C5.55704 12.9819 5.50106 12.4971 5.50106 11.9992C5.50106 11.5014 5.55703 11.0166 5.66302 10.5508L4.13985 8.61513L5.13985 6.88308L7.57966 7.2346ZM11.9999 15.8492C14.1263 15.8492 15.8499 14.1253 15.8499 11.999C15.8499 9.87278 14.1263 8.14892 11.9999 8.14892C9.87352 8.14892 8.14991 9.87278 8.14991 11.999C8.14991 14.1253 9.87352 15.8492 11.9999 15.8492ZM14.0499 11.999C14.0499 13.1313 13.1321 14.0492 11.9999 14.0492C10.8677 14.0492 9.94991 13.1313 9.94991 11.999C9.94991 10.8668 10.8677 9.94893 11.9999 9.94893C13.1321 9.94893 14.0499 10.8668 14.0499 11.999Z" fill="var(--G-bithumb-new-gray_01)" />
    </g>
</svg>