<svg width="28" height="29" viewBox="0 0 28 29" fill="currentColor" xmlns="http://www.w3.org/2000/svg">
    <path id="Union" fill-rule="evenodd" clip-rule="evenodd" d="M7.17686 7.1999H11.2239C11.4871 7.1999 11.7004 7.41323 11.7004 7.67637V11.7234C11.7004 11.9866 11.4871 12.1999 11.2239 12.1999H7.17686C6.91371 12.1999 6.70039 11.9866 6.70039 11.7234V7.67637C6.70039 7.41323 6.91371 7.1999 7.17686 7.1999ZM11.2239 5.3999H7.17686C5.9196 5.3999 4.90039 6.41911 4.90039 7.67637V11.7234C4.90039 12.9807 5.9196 13.9999 7.17686 13.9999H11.2239C12.4812 13.9999 13.5004 12.9807 13.5004 11.7234V7.67637C13.5004 6.41911 12.4812 5.3999 11.2239 5.3999ZM7.17686 16.8H11.2239C11.4871 16.8 11.7004 17.0133 11.7004 17.2765V21.3235C11.7004 21.5867 11.4871 21.8 11.2239 21.8H7.17686C6.91371 21.8 6.70039 21.5867 6.70039 21.3235V17.2765C6.70039 17.0133 6.91371 16.8 7.17686 16.8ZM11.2239 15H7.17686C5.9196 15 4.90039 16.0192 4.90039 17.2765V21.3235C4.90039 22.5808 5.9196 23.6 7.17686 23.6H11.2239C12.4812 23.6 13.5004 22.5808 13.5004 21.3235V17.2765C13.5004 16.0192 12.4812 15 11.2239 15ZM20.8239 7.1999H16.7768C16.5137 7.1999 16.3004 7.41323 16.3004 7.67637V11.7234C16.3004 11.9866 16.5137 12.1999 16.7768 12.1999H20.8239C21.087 12.1999 21.3004 11.9866 21.3004 11.7234V7.67637C21.3004 7.41323 21.087 7.1999 20.8239 7.1999ZM16.7768 5.3999H20.8239C22.0812 5.3999 23.1004 6.41911 23.1004 7.67637V11.7234C23.1004 12.9807 22.0812 13.9999 20.8239 13.9999H16.7768C15.5196 13.9999 14.5004 12.9807 14.5004 11.7234V7.67637C14.5004 6.41911 15.5196 5.3999 16.7768 5.3999ZM16.7768 16.8H20.8239C21.087 16.8 21.3004 17.0133 21.3004 17.2765V21.3235C21.3004 21.5867 21.087 21.8 20.8239 21.8H16.7768C16.5137 21.8 16.3004 21.5867 16.3004 21.3235V17.2765C16.3004 17.0133 16.5137 16.8 16.7768 16.8ZM20.8239 15H16.7768C15.5196 15 14.5004 16.0192 14.5004 17.2765V21.3235C14.5004 22.5808 15.5196 23.6 16.7768 23.6H20.8239C22.0812 23.6 23.1004 22.5808 23.1004 21.3235V17.2765C23.1004 16.0192 22.0812 15 20.8239 15Z" />
</svg>